# xmcd
#
# Track frame offsets: 
#        150
#        9658
#        32987
#        53418
#        74304
#        87970
#        108740
#        117215
#        133940
#        157720
#        175578
#        197793
#        217251
#        237474
#
# Disc length: 3325 seconds
#
# Revision: 2
# Processed by: cddbd v1.5.2PL0 Copyright (c) Steve Scherf et al.
# Submitted via: ExactAudioCopy v0.95b4
#
DISCID=c30cfb0e
DTITLE=Derniere Volonte - Immortel
DYEAR=2010
DGENRE=Synthpop
TTITLE0=Ici Bas
TTITLE1=Corp Languissant
TTITLE2=Mon Orage
TTITLE3=Rien À Aimer
TTITLE4=Impossible
TTITLE5=Le Plus Secret
TTITLE6=Fragile
TTITLE7=Trop Tard
TTITLE8=Maintenant
TTITLE9=À Jamais
TTITLE10=Immortel
TTITLE11=Peut-Être
TTITLE12=Le Mal Que Tu Me Fais
TTITLE13=Au Loin
EXTD=YEAR: 2010
EXTT0=
EXTT1=
EXTT2=
EXTT3=
EXTT4=
EXTT5=
EXTT6=
EXTT7=
EXTT8=
EXTT9=
EXTT10=
EXTT11=
EXTT12=
EXTT13=
PLAYORDER=
